<?xml version="1.0" encoding="UTF-8" standalone="no"?>
<svg
   width="134"
   height="135"
   viewBox="0 0 134 135"
   fill="none"
   class="Footer__verticalLogoKog"
   version="1.1"
   id="svg24"
   sodipodi:docname="kongsberg-w.svg"
   inkscape:version="1.3.2 (091e20ef0f, 2023-11-25, custom)"
   xmlns:inkscape="http://www.inkscape.org/namespaces/inkscape"
   xmlns:sodipodi="http://sodipodi.sourceforge.net/DTD/sodipodi-0.dtd"
   xmlns="http://www.w3.org/2000/svg"
   xmlns:svg="http://www.w3.org/2000/svg">
  <defs
     id="defs24" />
  <sodipodi:namedview
     id="namedview24"
     pagecolor="#ffffff"
     bordercolor="#000000"
     borderopacity="0.25"
     inkscape:showpageshadow="2"
     inkscape:pageopacity="0.0"
     inkscape:pagecheckerboard="0"
     inkscape:deskcolor="#d1d1d1"
     inkscape:zoom="8.6296296"
     inkscape:cx="67.036481"
     inkscape:cy="109.4485"
     inkscape:window-width="2560"
     inkscape:window-height="1371"
     inkscape:window-x="0"
     inkscape:window-y="0"
     inkscape:window-maximized="1"
     inkscape:current-layer="svg24" />
  <path
     d="M100.29 0.710449H33.5632V100.776H100.29V0.710449Z"
     fill="#D71539"
     id="path1" />
  <path
     d="M66.4566 33.7354C62.6142 33.7354 58.9111 34.3685 55.4629 35.5431L51.302 28.3918C51.2781 28.3321 51.2462 28.2565 51.2821 28.1888C51.3259 28.1171 51.3259 28.0853 51.5608 28.0853C51.7957 28.0853 53.269 28.149 53.3645 28.1609C53.4959 28.1768 53.6034 28.2326 53.6154 28.4396C53.6313 28.6467 53.6672 29.7337 53.6672 29.8133C53.6632 30.0244 53.9459 30.1518 54.0574 29.8412C54.1848 29.4749 54.4157 28.8935 54.4516 28.7821C54.5352 28.5312 54.6825 28.5989 54.9811 28.7781L56.0921 29.3953C56.1558 29.4311 56.1796 29.4828 56.1279 29.7337C56.0761 29.9925 55.9169 30.9043 55.885 31.0238C55.8492 31.1472 55.8372 31.2229 55.5864 31.1711C55.3355 31.1233 54.5949 30.9442 54.5153 30.9442C54.4317 30.9481 54.2485 30.9561 54.2883 31.187C54.575 31.8162 55.2479 32.29 55.885 32.4771C56.9601 32.7997 58.071 32.4214 58.7519 31.5414C59.1142 31.0278 59.2854 30.4225 59.2655 29.7695C59.2576 29.662 59.2416 29.5386 59.1301 29.4789C59.0824 29.4629 59.0226 29.447 58.9828 29.4948C58.8196 29.678 58.7439 29.9129 58.5607 30.0881C58.3298 30.3071 57.9794 30.3708 57.6688 30.2951C57.0835 30.0881 56.8844 29.459 56.8765 28.8736C56.8924 28.5352 57.0158 28.2206 57.3065 28.0136C57.5454 27.8304 57.9515 27.8105 58.2104 27.9618C58.4373 28.0574 58.6085 28.2883 58.8673 28.2923C58.9629 28.2923 59.0784 28.145 58.9549 27.9937C58.7598 27.7508 58.0352 27.0938 57.9595 26.174C57.8958 25.3458 58.1984 24.6211 58.6523 24.219C58.6921 24.1791 58.7399 24.1433 58.8554 24.1831C59.5562 24.422 60.1893 25.2423 60.3087 26.0546C60.4242 26.8668 60.0897 27.6194 60.042 27.7349C59.9942 27.8543 60.0539 28.0056 60.1574 28.0295C60.257 28.0375 60.3286 27.9817 60.3884 27.9021C60.6074 27.6035 60.8383 27.1774 61.2484 27.1416C61.6347 27.0898 61.9652 27.277 62.1841 27.5915C62.435 28.0016 62.5664 28.6029 62.3514 29.0767C62.216 29.3953 61.8895 29.5943 61.563 29.6023C61.1847 29.6421 60.9299 29.3753 60.6472 29.1882C60.5914 29.1524 60.5198 29.1683 60.476 29.2041C60.3565 29.3236 60.4441 29.5067 60.4879 29.6342C60.8542 30.5539 61.782 31.2906 62.7894 31.3145C63.9481 31.3861 65.0192 30.7451 65.5209 29.7058C65.6523 29.3953 65.7797 29.0727 65.7598 28.7064C65.7598 28.6507 65.712 28.587 65.6523 28.5591C65.4173 28.5153 65.266 28.7303 65.0908 28.8418L64.3622 29.3873C64.3263 29.4072 64.2666 29.4191 64.2188 29.3992C63.8684 29.0011 63.5499 28.5631 63.2393 28.133C63.2075 28.0853 63.1955 28.0136 63.2313 27.9618C63.5061 27.5278 63.8167 27.1177 64.1312 26.7036C64.175 26.6399 64.2348 26.5881 64.3104 26.62C64.7444 26.8987 65.1426 27.2531 65.5925 27.484C65.6523 27.5119 65.927 27.4442 65.7996 27.1933C65.6682 26.9425 65.2103 26.2855 65.1227 26.1342C65.0351 25.9829 64.9276 25.8754 65.0829 25.7679C65.2382 25.6604 66.365 24.8799 66.4008 24.8481C66.4247 24.8282 66.4765 24.8202 66.5163 24.8481C66.5521 24.876 67.679 25.6604 67.8343 25.7679C67.9856 25.8754 67.882 25.9829 67.7984 26.1342C67.7108 26.2855 67.2529 26.9425 67.1215 27.1933C66.9901 27.4442 67.2689 27.5119 67.3286 27.484C67.7745 27.2531 68.1767 26.8987 68.6067 26.62C68.6824 26.5881 68.7461 26.6439 68.7899 26.7036C69.1005 27.1177 69.411 27.5278 69.6898 27.9618C69.7216 28.0136 69.7137 28.0853 69.6818 28.133C69.3712 28.5591 69.0527 28.9971 68.6983 29.3992C68.6505 29.4191 68.5948 29.4072 68.551 29.3873L67.8263 28.8418C67.6471 28.7303 67.4918 28.5153 67.2609 28.5591C67.2052 28.587 67.1574 28.6507 67.1574 28.7064C67.1375 29.0727 67.2609 29.3953 67.3963 29.7058C67.894 30.7451 68.9691 31.3861 70.1278 31.3145C71.1312 31.2906 72.0629 30.5539 72.4292 29.6342C72.473 29.5067 72.5606 29.3236 72.4412 29.2041C72.3934 29.1683 72.3257 29.1524 72.266 29.1882C71.9833 29.3753 71.7284 29.6421 71.3541 29.6023C71.0197 29.5943 70.6932 29.3953 70.5578 29.0767C70.3428 28.6069 70.4742 28.0016 70.725 27.5915C70.944 27.277 71.2705 27.0898 71.6607 27.1416C72.0709 27.1734 72.3058 27.5995 72.5168 27.9021C72.5805 27.9817 72.6482 28.0375 72.7517 28.0295C72.8553 28.0056 72.915 27.8543 72.8672 27.7349C72.8155 27.6194 72.481 26.8668 72.6004 26.0546C72.7199 25.2423 73.349 24.422 74.0538 24.1831C74.1653 24.1473 74.2131 24.1831 74.2569 24.219C74.7068 24.6171 75.0094 25.3458 74.9457 26.174C74.878 27.0938 74.1533 27.7508 73.9542 27.9937C73.8348 28.145 73.9503 28.2923 74.0458 28.2923C74.3046 28.2923 74.4719 28.0534 74.6988 27.9618C74.9576 27.8105 75.3638 27.8264 75.6027 28.0136C75.8973 28.2206 76.0168 28.5352 76.0327 28.8736C76.0287 29.4629 75.8257 30.0881 75.2403 30.2951C74.9338 30.3748 74.5794 30.3071 74.3484 30.0881C74.1653 29.9129 74.0896 29.678 73.9264 29.4948C73.8866 29.447 73.8308 29.4629 73.779 29.4789C73.6715 29.5386 73.6556 29.662 73.6437 29.7695C73.6237 30.4225 73.795 31.0278 74.1573 31.5414C74.8382 32.4214 75.9531 32.7957 77.0282 32.4771C77.6652 32.29 78.3342 31.8122 78.6248 31.187C78.6647 30.9561 78.4775 30.9481 78.3979 30.9442C78.3182 30.9442 77.5737 31.1194 77.3268 31.1711C77.0759 31.2229 77.064 31.1472 77.0282 31.0238C76.9923 30.9043 76.8331 29.9925 76.7813 29.7337C76.7255 29.4828 76.7534 29.4311 76.8211 29.3953L77.932 28.7781C78.2307 28.6029 78.378 28.5312 78.4576 28.7821C78.4935 28.8935 78.7204 29.4749 78.8558 29.8412C78.9673 30.1518 79.25 30.0244 79.246 29.8133C79.246 29.7297 79.2779 28.6467 79.2938 28.4396C79.3137 28.2326 79.4132 28.1768 79.5526 28.1609C79.6482 28.1529 81.1214 28.0853 81.3524 28.0853C81.5913 28.0853 81.5873 28.1171 81.6271 28.1888C81.6669 28.2565 81.6351 28.3321 81.6112 28.3918L77.4542 35.5431C74.002 34.3725 70.3069 33.7354 66.4566 33.7354Z"
     fill="#FFF572"
     id="path2" />
  <path
     d="M66.4565 20.4482C67.5037 20.4482 68.3518 21.2964 68.3518 22.3436C68.3518 23.3908 67.5037 24.2309 66.4565 24.2309C65.4093 24.2309 64.5652 23.3828 64.5652 22.3436C64.5652 21.3043 65.4133 20.4482 66.4565 20.4482Z"
     fill="#FFF572"
     id="path3" />
  <path
     d="M51.7201 23.5579C52.5563 23.5579 53.2332 24.2348 53.2332 25.0709C53.2332 25.9071 52.5563 26.584 51.7201 26.584C50.8839 26.584 50.207 25.9071 50.207 25.0709C50.207 24.2348 50.8839 23.5579 51.7201 23.5579Z"
     fill="#FFF572"
     id="path4" />
  <path
     d="M53.5317 19.7075C54.3679 19.7075 55.0488 20.3844 55.0488 21.2206C55.0488 22.0568 54.3719 22.7337 53.5317 22.7337C52.6916 22.7337 52.0187 22.0568 52.0187 21.2206C52.0187 20.3844 52.6956 19.7075 53.5317 19.7075Z"
     fill="#FFF572"
     id="path5" />
  <path
     d="M57.8361 18.4255C58.6722 18.4255 59.3531 19.1024 59.3531 19.9386C59.3531 20.7748 58.6762 21.4517 57.8361 21.4517C56.9959 21.4517 56.323 20.7748 56.323 19.9386C56.323 19.1024 56.9999 18.4255 57.8361 18.4255Z"
     fill="#FFF572"
     id="path6" />
  <path
     d="M62.0607 20.3088C62.8968 20.3088 63.5777 20.9897 63.5777 21.8219C63.5777 22.6541 62.9008 23.335 62.0607 23.335C61.2205 23.335 60.5476 22.6581 60.5476 21.8219C60.5476 20.9857 61.2245 20.3088 62.0607 20.3088Z"
     fill="#FFF572"
     id="path7" />
  <path
     d="M81.4638 23.5579C80.6277 23.5579 79.9468 24.2348 79.9468 25.0709C79.9468 25.9071 80.6237 26.584 81.4638 26.584C82.304 26.584 82.9769 25.9071 82.9769 25.0709C82.9769 24.2348 82.3 23.5579 81.4638 23.5579Z"
     fill="#FFF572"
     id="path8" />
  <path
     d="M79.6521 19.7075C78.8159 19.7075 78.135 20.3844 78.135 21.2206C78.135 22.0568 78.8119 22.7337 79.6521 22.7337C80.4922 22.7337 81.1651 22.0568 81.1651 21.2206C81.1651 20.3844 80.4882 19.7075 79.6521 19.7075Z"
     fill="#FFF572"
     id="path9" />
  <path
     d="M75.3478 18.4255C74.5116 18.4255 73.8347 19.1024 73.8347 19.9386C73.8347 20.7748 74.5116 21.4517 75.3478 21.4517C76.184 21.4517 76.8609 20.7748 76.8609 19.9386C76.8609 19.1024 76.184 18.4255 75.3478 18.4255Z"
     fill="#FFF572"
     id="path10" />
  <path
     d="M71.1231 20.3088C70.287 20.3088 69.6061 20.9897 69.6061 21.8219C69.6061 22.6541 70.283 23.335 71.1231 23.335C71.9633 23.335 72.6362 22.6581 72.6362 21.8219C72.6362 20.9857 71.9593 20.3088 71.1231 20.3088Z"
     fill="#FFF572"
     id="path11" />
  <path
     d="M67.5197 14.9294L67.0379 16.7212V16.7332C67.5396 16.6058 68.0373 16.4345 68.539 16.2912V18.4095C68.0373 18.2662 67.5396 18.091 67.0379 17.9675V17.9755L67.5316 19.831C67.2051 19.6876 66.8388 19.612 66.4565 19.612C66.0743 19.612 65.7119 19.6876 65.3815 19.831L65.8752 17.9755V17.9675C65.3775 18.0949 64.8837 18.2662 64.3781 18.4095V16.2912C64.8837 16.4345 65.3775 16.6058 65.8752 16.7332V16.7212L65.3974 14.9294H67.5197Z"
     fill="#FFF572"
     id="path12" />
  <path
     d="M63.8047 41.3286C64.5294 40.9782 65.2342 40.5482 65.9628 40.1978L67.022 41.8542L66.9304 41.898L56.3668 47.4407C56.3031 45.6528 55.9009 43.9128 54.4874 42.6466C53.5915 41.9339 52.3253 41.4999 51.1188 41.898C50.43 42.1529 49.6894 42.7501 49.6137 43.4589C49.5341 43.9885 49.7491 44.4424 50.0238 44.8406C50.6689 44.5738 51.4692 44.3866 52.2337 44.5419C53.3048 44.737 54.3719 45.5573 54.7621 46.5089C55.3355 47.8189 54.9055 49.332 53.9419 50.3473C52.7872 51.4901 51.0073 51.8524 49.3788 51.3866C47.4556 50.8252 46.1934 48.9816 46.1138 47.2017C45.8709 43.8451 48.3037 40.7951 51.5688 39.4293C54.137 38.2945 57.9038 37.9123 60.5596 39.1228C61.7541 39.5926 62.8611 40.3929 63.8008 41.3247L63.8047 41.3286ZM54.4715 40.4566C56.2155 41.0977 57.5812 42.79 58.0272 44.3588L61.8616 42.348C60.026 40.4367 57.1273 39.8474 54.4675 40.4566H54.4715ZM48.2719 45.4139C47.9454 46.5089 48.0728 47.8269 48.8054 48.7188C49.4425 49.4913 50.4459 49.8496 51.4692 49.6027C52.1421 49.3997 52.7275 48.8422 52.8549 48.2052C52.9624 47.5959 52.7474 47.0106 52.2297 46.6363C51.7639 46.2859 51.0034 46.2461 50.4658 46.489C50.1353 46.6523 49.8925 46.9788 49.7093 47.2296C48.9488 46.8514 48.4749 46.1506 48.2679 45.4099L48.2719 45.4139Z"
     fill="#FFF572"
     id="path13" />
  <path
     d="M82.3597 40.6C82.9928 41.8264 82.7221 43.4111 82.7698 44.8247L82.1288 45.1631L73.8029 49.5271V45.2467C73.7551 44.6933 73.6755 44.1318 73.1459 43.7576C72.465 43.2519 71.3422 43.5624 70.6812 43.8929V53.2421V53.2182L75.8456 50.5903C77.3865 49.8258 79.5048 49.4794 81.0895 50.3952C82.6663 51.2234 83.1441 52.7763 83.0924 54.3769L83.0406 58.1994L76.0845 61.8507L76.0486 61.8626C78.4377 62.6431 81.1015 63.7221 82.3358 66.0395C83.5423 68.3808 82.738 71.5343 83.164 74.1026C83.3631 75.4006 83.9684 76.5792 84.8324 77.6264L84.9001 77.5906L86.9945 76.4877L88.0497 78.164L80.6715 82.0382L77.3706 83.7703C75.4195 81.5166 73.7711 79.1156 73.6954 76.1412L73.6436 73.6964L73.6795 67.8114C73.6078 66.6487 73.572 65.4183 72.4212 64.7215C71.9116 64.4229 71.1949 64.4229 70.6812 64.6738V72.2232C67.1932 72.2988 63.8565 73.127 61.5032 75.6435C60.8502 76.3204 60.3167 77.0371 59.8309 77.7658C58.3577 77.0929 56.2035 76.9535 54.7223 77.7101C53.5198 78.3153 52.7195 79.4421 52.9225 80.7163C53.1097 82.082 54.6626 83.1292 56.0363 83.408C59.2297 83.9694 62.877 83.408 64.7484 80.768L65.0231 80.2703C63.9162 79.4899 63.4862 78.2794 63.733 77.0292C63.9839 75.6754 65.4213 74.4052 66.9105 74.1703C68.4833 73.8716 70.0322 74.3216 71.0754 75.4524C72.1385 76.5195 72.3456 78.2954 71.7563 79.6332C70.3507 82.8585 66.5322 84.3078 63.1716 85.0086C58.943 85.8647 54.3759 85.59 50.6091 84.0291C48.228 83.0058 46.0938 80.8357 45.9306 78.4069C45.6558 75.3728 47.5949 72.7886 50.4021 71.2516C52.166 70.2841 54.1688 69.6987 56.2632 69.4479V61.8905H50.41C50.3941 59.5771 51.3697 57.1681 53.8383 56.1369C54.5989 55.8581 55.4072 55.6909 56.2632 55.667V49.2325L59.7393 47.4566L70.8484 41.6273L75.3916 39.2462C76.8689 38.4897 79.1226 38.0716 80.6834 38.9675C81.3882 39.3179 82.0611 39.943 82.3637 40.608L82.3597 40.6ZM78.2904 40.4248C76.7176 40.5841 75.4593 41.4561 74.1374 42.1211C75.9531 42.7621 76.0247 44.6097 75.973 46.1785L80.6316 43.7337C80.6077 42.8816 80.759 41.9498 80.2653 41.249C79.8194 40.6398 79.0947 40.381 78.2904 40.4208V40.4248ZM68.4912 54.3451V45.0516L65.5089 46.6085V55.9059L68.4912 54.3451ZM63.3468 66.2227V47.7552L58.5169 50.3195L58.4214 50.3514V57.5544C57.2268 57.5862 56.0243 57.4548 54.9771 57.7973C54.0096 58.1078 53.1694 59.0276 53.0699 59.9355H58.4174V68.7869L63.3428 66.2266L63.3468 66.2227ZM78.5611 51.8087C76.8808 52.0197 75.5469 53.0231 74.1095 53.7199C75.2085 54.1101 75.8933 55.1573 75.8933 56.2125L75.9013 59.7165L75.9172 59.7045L80.9143 57.0885L80.9542 55.3206C80.9183 54.4048 81.0736 53.4133 80.5799 52.6568C80.114 52.0396 79.3734 51.741 78.5611 51.8127V51.8087ZM70.6852 55.4839V62.4838L73.7193 60.8672L73.7432 57.7933C73.6954 57.0089 73.8467 56.1369 73.3211 55.5276C72.6761 54.787 71.39 55.0618 70.6852 55.4878V55.4839ZM68.4912 56.5908L65.5089 58.1476V67.3734L61.4754 69.4638C63.9202 69.6669 66.2853 70.2841 68.4952 70.957V56.5908H68.4912ZM73.5242 63.1567L73.5003 63.1965C75.1965 63.9212 75.7341 65.5776 75.8137 67.1544V73.5929L75.8495 75.7391C75.8933 77.8056 76.6937 79.6332 78.0435 81.1981L82.8973 78.6458C81.6908 77.0053 80.9342 75.1856 80.8745 73.1111V69.5036C80.8228 68.5679 80.7869 67.6322 80.345 66.8518C78.8916 64.4986 76.0168 63.8893 73.5242 63.1567ZM63.3667 71.6418C59.584 70.9012 55.1922 70.9888 51.9311 72.689C49.777 73.7601 48.0051 75.763 48.1205 78.0764C48.1205 79.9159 49.7013 81.4927 51.4294 82.309C50.9595 81.6759 50.7843 80.9353 50.7843 80.131C50.7644 79.1753 51.1228 78.4108 51.6603 77.6384C53.3844 75.5758 56.2115 74.8989 58.9748 75.4842C60.1813 73.8438 62.0607 72.4143 64.0197 71.7852L63.3667 71.6418ZM68.1807 76.0098C67.3724 75.9143 66.6238 76.1731 66.146 76.7743C65.7797 77.2561 65.6841 78.0366 66.0305 78.5542C66.3291 79.1395 66.9981 79.4262 67.6511 79.4899C67.4281 80.5889 66.6556 81.5126 65.8354 82.3408C66.9702 81.859 68.1408 81.3255 68.973 80.2942C69.7614 79.3665 70.3069 77.9808 69.6101 76.8779C69.2518 76.416 68.7501 76.0895 68.1807 76.0059V76.0098Z"
     fill="#FFF572"
     id="path14" />
  <path
     d="M45.5125 134.581C43.653 134.171 42.6138 133.132 41.8692 132.132C41.5347 131.682 36.681 124.324 35.0922 121.919V131.002C35.0922 132.316 35.0723 133.255 36.1633 133.984V134.052H32.4961V133.984C33.5871 133.255 33.5871 132.32 33.5871 131.002V121.358C33.5871 120.044 33.3124 119.383 32.2373 118.678V118.61H36.0956V118.634L44.0233 130.743V121.636C44.0233 120.323 44.0432 119.383 42.9522 118.678V118.61H46.5796V118.678C45.5085 119.383 45.5085 120.323 45.5085 121.636V134.581"
     fill="currentColor"
     id="path15"
     style="fill:#ffffff" />
  <path
     d="M29.6093 126.12C29.6093 130.894 26.1332 134.358 22.044 134.358C17.9547 134.358 14.5383 131.034 14.5383 126.236C14.5383 121.788 17.9348 118.069 22.251 118.185C26.5712 118.161 29.6133 121.903 29.6133 126.12H29.6093ZM17.3057 126.275C17.3057 129.771 19.0298 132.949 22.1634 132.949C25.0462 132.949 26.8261 129.935 26.8261 126.275C26.8261 122.616 25.0183 119.494 22.1276 119.494C19.2368 119.494 17.3057 122.417 17.3057 126.275Z"
     fill="currentColor"
     id="path16"
     style="fill:#ffffff" />
  <path
     d="M59.6557 132.738V129.023C59.6557 127.944 59.5203 126.893 58.4652 126.47V126.403H62.1921V133.821C61.0215 134.119 58.6882 134.462 57.637 134.434C56.976 134.418 49.6177 134.438 49.6575 126.486C49.6933 119.24 55.7576 118.379 57.1512 118.34C58.4851 118.3 60.4003 118.495 61.6665 119.1V122.051H61.5948C60.6153 120.613 59.5283 119.606 57.3383 119.606C55.7735 119.606 52.4487 121.079 52.4487 126.554C52.4487 127.832 52.7235 131.356 55.6381 132.65C56.1956 132.897 58.1626 133.466 59.6557 132.746V132.738Z"
     fill="currentColor"
     id="path17"
     style="fill:#ffffff" />
  <path
     d="M131.196 132.738V129.023C131.196 127.944 131.061 126.893 130.005 126.47V126.403H133.732V133.821C132.562 134.119 130.228 134.462 129.177 134.434C128.516 134.418 121.158 134.438 121.198 126.486C121.238 119.24 127.302 118.379 128.687 118.34C130.021 118.3 131.941 118.495 133.203 119.1V122.051H133.135C132.152 120.613 131.069 119.606 128.879 119.606C127.314 119.606 123.993 121.079 123.993 126.554C123.993 127.832 124.268 131.356 127.182 132.65C127.74 132.897 129.711 133.466 131.2 132.746L131.196 132.738Z"
     fill="currentColor"
     id="path18"
     style="fill:#ffffff" />
  <path
     d="M66.1539 130.03C67.0657 131.663 68.7141 133.112 70.3068 132.981C71.9194 132.845 72.9945 131.695 72.9945 129.978C72.9945 126.57 66.3768 127.207 66.4326 122.453C66.4764 119.06 69.5065 118.129 71.5292 118.129C72.4012 118.129 73.763 118.332 74.6071 118.666L74.5116 121.469L74.4837 121.485C73.2653 119.709 72.4689 119.363 71.1868 119.363C70.0241 119.363 68.8296 120.362 68.8296 121.712C68.8296 125.296 75.4951 124.308 75.4951 129.672C75.4951 132.63 72.891 134.315 70.048 134.315C69.5861 134.315 67.7107 134.143 66.4724 133.518L66.126 130.042L66.1578 130.026L66.1539 130.03Z"
     fill="currentColor"
     id="path19"
     style="fill:#ffffff" />
  <path
     d="M90.4148 129.445C90.4148 131.256 89.3715 132.574 87.7908 133.331C86.1423 134.131 84.2829 134.06 82.5189 134.06H78.7721V133.988C79.9507 133.542 79.8074 131.822 79.8074 130.743V121.875C79.8074 120.816 79.9706 119.096 78.7721 118.65V118.583H84.1594C87.2692 118.583 89.1964 119.829 89.1964 121.923C89.1964 123.504 88.1691 124.491 85.9234 125.3C87.5001 125.574 90.4188 126.283 90.4188 129.449L90.4148 129.445ZM82.292 119.972V132.746C84.3028 133.124 87.755 132.801 87.7072 129.401C87.6793 127.545 86.3653 126.156 83.172 126.148L83.6259 124.997C84.6452 124.754 86.5485 124.376 86.5485 122.082C86.5485 120.092 83.9444 119.439 82.292 119.976V119.972Z"
     fill="currentColor"
     id="path20"
     style="fill:#ffffff" />
  <path
     d="M103.085 121.282H103.021C102.484 120.585 101.87 119.335 97.3749 119.92V124.81H101.803V127.155H101.735C101.361 126.474 100.373 126.096 99.6485 126.096H97.3789V132.698C103.053 133.375 103.937 131.157 104.347 130.603H104.466L103.403 134.024H93.6719V133.956C94.8783 133.331 94.8664 132.045 94.8664 130.994V121.648C94.8664 120.573 94.8664 119.108 93.6719 118.662V118.594H103.089V121.282H103.085Z"
     fill="currentColor"
     id="path21"
     style="fill:#ffffff" />
  <path
     d="M120.772 134.028H118.653C117.865 133.988 116.834 134.016 115.564 132.451C114.293 130.886 111.411 126.662 111.411 126.662L111.988 125.583C113.497 125.184 114.847 124.34 114.847 122.333C114.847 120.816 113.509 119.901 111.936 119.841C111.375 119.817 111.04 119.813 110.503 119.905V130.739C110.551 131.929 110.3 133.53 111.498 133.952V134.02H106.923V133.952C108.118 133.383 107.883 131.878 107.954 130.739V121.784C107.883 120.613 108.118 119.104 106.923 118.658V118.591H112.506C115.942 118.591 117.455 120.231 117.455 122.365C117.455 124.5 115.842 125.531 113.879 126.076C115.675 128.537 118.813 133.263 120.764 133.988V134.028H120.772Z"
     fill="currentColor"
     id="path22"
     style="fill:#ffffff" />
  <path
     d="M14.2516 133.96V134.032H11.8347C10.6839 134.032 9.76813 133.542 8.99965 132.495L4.48035 125.758L8.29886 121.648C9.47348 120.386 9.93935 119.184 8.3108 118.654V118.586H12.7584V118.61L6.88135 125.029C8.68509 127.565 12.0696 133.064 14.2516 133.964V133.96Z"
     fill="currentColor"
     id="path23"
     style="fill:#ffffff" />
  <path
     d="M1.36664 121.867C1.36664 120.808 1.50601 119.096 0.307495 118.65V118.583H4.92634V118.65C3.72783 119.076 3.87117 120.808 3.87117 121.867V130.719C3.87117 131.798 3.72783 133.514 4.92634 133.96V134.032H0.307495V133.96C1.50601 133.518 1.36664 131.778 1.36664 130.719V121.867Z"
     fill="currentColor"
     id="path24"
     style="fill:#ffffff" />
</svg>
