<?xml version="1.0" encoding="UTF-8" standalone="no"?>
<!-- Created with Inkscape (http://www.inkscape.org/) -->

<svg
   width="210mm"
   height="297mm"
   viewBox="0 0 210 297"
   version="1.1"
   id="svg1"
   inkscape:version="1.4.4 (dcaf3e7, 2026-05-05)"
   sodipodi:docname="Main.svg"
   xmlns:inkscape="http://www.inkscape.org/namespaces/inkscape"
   xmlns:sodipodi="http://sodipodi.sourceforge.net/DTD/sodipodi-0.dtd"
   xmlns:xlink="http://www.w3.org/1999/xlink"
   xmlns="http://www.w3.org/2000/svg"
   xmlns:svg="http://www.w3.org/2000/svg">
  <sodipodi:namedview
     id="namedview1"
     pagecolor="#ffffff"
     bordercolor="#000000"
     borderopacity="0.25"
     inkscape:showpageshadow="2"
     inkscape:pageopacity="0.0"
     inkscape:pagecheckerboard="false"
     inkscape:deskcolor="#d1d1d1"
     inkscape:document-units="mm"
     showgrid="true"
     inkscape:zoom="0.76913381"
     inkscape:cx="325.04097"
     inkscape:cy="615.6276"
     inkscape:window-width="1440"
     inkscape:window-height="870"
     inkscape:window-x="0"
     inkscape:window-y="30"
     inkscape:window-maximized="0"
     inkscape:current-layer="g22">
    <inkscape:grid
       id="grid1"
       units="mm"
       originx="0"
       originy="0"
       spacingx="0.99999998"
       spacingy="1"
       empcolor="#0099e5"
       empopacity="0.30196078"
       color="#0099e5"
       opacity="0.14901961"
       empspacing="5"
       enabled="true"
       visible="true" />
  </sodipodi:namedview>
  <defs
     id="defs1">
    <linearGradient
       id="linearGradient4"
       inkscape:collect="always">
      <stop
         style="stop-color:#62fced;stop-opacity:1;"
         offset="0"
         id="stop3" />
      <stop
         style="stop-color:#62fced;stop-opacity:0;"
         offset="1"
         id="stop4" />
    </linearGradient>
    <linearGradient
       id="linearGradient2"
       inkscape:collect="always">
      <stop
         style="stop-color:#62fced;stop-opacity:1;"
         offset="0"
         id="stop1" />
      <stop
         style="stop-color:#62fced;stop-opacity:0;"
         offset="1"
         id="stop2" />
    </linearGradient>
    <linearGradient
       inkscape:collect="always"
       xlink:href="#linearGradient34"
       id="linearGradient35"
       x1="58.479374"
       y1="197.32533"
       x2="51.165058"
       y2="206.42421"
       gradientUnits="userSpaceOnUse" />
    <linearGradient
       id="linearGradient34"
       inkscape:collect="always">
      <stop
         style="stop-color:#65fced;stop-opacity:1;"
         offset="0"
         id="stop34" />
      <stop
         style="stop-color:#62fced;stop-opacity:0;"
         offset="1"
         id="stop35" />
    </linearGradient>
    <inkscape:path-effect
       effect="fillet_chamfer"
       id="path-effect22"
       is_visible="true"
       lpeversion="1"
       nodesatellites_param="F,0,0,1,0,0,0,1 @ F,0,0,1,0,0,0,1 @ F,0,0,1,0,0,0,1 @ F,0,0,1,0,0,0,1 @ F,0,0,1,0,0,0,1 @ F,0,0,1,0,0,0,1 @ F,0,0,1,0,0,0,1 @ F,0,0,1,0,0,0,1 @ F,0,0,1,0,0,0,1 @ F,0,0,1,0,0,0,1 @ F,0,0,1,0,0,0,1 @ F,0,0,1,0,0,0,1"
       radius="0"
       unit="px"
       method="auto"
       mode="F"
       chamfer_steps="1"
       flexible="false"
       use_knot_distance="true"
       apply_no_radius="true"
       apply_with_radius="true"
       only_selected="false"
       hide_knots="false" />
    <linearGradient
       inkscape:collect="always"
       xlink:href="#linearGradient2"
       id="linearGradient39"
       x1="59.388515"
       y1="188.08919"
       x2="42.316498"
       y2="207.09328"
       gradientUnits="userSpaceOnUse" />
    <inkscape:path-effect
       effect="fillet_chamfer"
       id="path-effect20"
       is_visible="true"
       lpeversion="1"
       nodesatellites_param="F,0,0,1,0,0,0,1 @ F,0,0,1,0,0,0,1 @ F,0,0,1,0,0,0,1 @ F,0,0,1,0,0,0,1 @ F,0,0,1,0,0,0,1 @ F,0,0,1,0,0,0,1 @ F,0,0,1,0,0,0,1 @ F,0,0,1,0,0,0,1 @ F,0,0,1,0,0,0,1 @ F,0,0,1,0,0,0,1 @ F,0,0,1,0,0,0,1 @ F,0,0,1,0,0,0,1 @ F,0,0,1,0,0,0,1 @ F,0,0,1,0,0,0,1"
       radius="0"
       unit="px"
       method="auto"
       mode="F"
       chamfer_steps="1"
       flexible="false"
       use_knot_distance="true"
       apply_no_radius="true"
       apply_with_radius="true"
       only_selected="false"
       hide_knots="false" />
    <linearGradient
       inkscape:collect="always"
       xlink:href="#linearGradient4"
       id="linearGradient37"
       x1="60.501526"
       y1="192.97993"
       x2="49.787609"
       y2="208.58327"
       gradientUnits="userSpaceOnUse" />
    <inkscape:path-effect
       effect="fillet_chamfer"
       id="path-effect18"
       is_visible="true"
       lpeversion="1"
       nodesatellites_param="F,0,0,1,0,0,0,1 @ F,0,0,1,0,0,0,1 @ F,0,0,1,0,0,0,1 @ F,0,0,1,0,0,0,1 @ F,0,0,1,0,0,0,1 @ F,0,0,1,0,0,0,1 @ F,0,0,1,0,0,0,1 @ F,0,0,1,0,0,0,1 @ F,0,0,1,0,0,0,1 @ F,0,0,1,0,0,0,1 @ F,0,0,1,0,0,0,1"
       radius="0"
       unit="px"
       method="auto"
       mode="F"
       chamfer_steps="1"
       flexible="false"
       use_knot_distance="true"
       apply_no_radius="true"
       apply_with_radius="true"
       only_selected="false"
       hide_knots="false" />
  </defs>
  <g
     inkscape:label="Layer 1"
     inkscape:groupmode="layer"
     id="layer1">
    <g
       id="g22"
       transform="matrix(1.1940716,0,0,1.1960688,-33.149375,-112.81881)">
      <path
         style="fill:url(#linearGradient35)"
         inkscape:path-effect="#path-effect22"
         inkscape:original-d="m 49.73145,206.8514 c 0.006,-1.3028 0.535408,-3.19451 1.363231,-4.87148 1.817093,-3.68098 5.345419,-6.06641 9.677623,-6.54287 l 1.117809,-0.12293 v 1.77201 1.77201 l -1.269459,0.19989 c -3.36818,0.53036 -6.184031,3.06797 -7.06139,6.36364 -0.137326,0.51584 -0.250639,1.19947 -0.251806,1.51916 l -0.0021,0.58126 h -1.788495 -1.788496 z"
         d="m 49.73145,206.8514 c 0.006,-1.3028 0.535408,-3.19451 1.363231,-4.87148 1.817093,-3.68098 5.345419,-6.06641 9.677623,-6.54287 l 1.117809,-0.12293 v 1.77201 1.77201 l -1.269459,0.19989 c -3.36818,0.53036 -6.184031,3.06797 -7.06139,6.36364 -0.137326,0.51584 -0.250639,1.19947 -0.251806,1.51916 l -0.0021,0.58126 h -1.788495 -1.788496 z"
         id="path20"
         transform="translate(-0.67927245,0.40688294)" />
      <path
         style="fill:url(#linearGradient39)"
         inkscape:path-effect="#path-effect20"
         inkscape:original-d="m 40.329375,206.8514 c 0.04636,-0.36887 0.12739,-1.24383 0.180074,-1.94434 0.158796,-2.1114 0.90041,-4.6081 2.065433,-6.95342 2.187717,-4.40413 5.313762,-7.56786 9.626368,-9.74244 2.615927,-1.31904 5.007091,-1.97389 8.213355,-2.24933 l 1.475508,-0.12676 v 1.78587 1.78588 l -1.421208,0.11852 c -4.106002,0.34243 -7.90896,2.03619 -10.893681,4.85182 -3.347731,3.15808 -5.192717,7.04092 -5.67234,11.93766 l -0.118245,1.20723 h -1.769774 -1.769774 z"
         d="m 40.329375,206.8514 c 0.04636,-0.36887 0.12739,-1.24383 0.180074,-1.94434 0.158796,-2.1114 0.90041,-4.6081 2.065433,-6.95342 2.187717,-4.40413 5.313762,-7.56786 9.626368,-9.74244 2.615927,-1.31904 5.007091,-1.97389 8.213355,-2.24933 l 1.475508,-0.12676 v 1.78587 1.78588 l -1.421208,0.11852 c -4.106002,0.34243 -7.90896,2.03619 -10.893681,4.85182 -3.347731,3.15808 -5.192717,7.04092 -5.67234,11.93766 l -0.118245,1.20723 h -1.769774 -1.769774 z"
         id="path18"
         transform="translate(-0.67927245,0.40688294)" />
      <path
         style="fill:url(#linearGradient37)"
         inkscape:path-effect="#path-effect18"
         inkscape:original-d="m 45.130232,206.13601 c 0.175385,-7.52967 6.610308,-14.01499 14.247905,-15.16632 1.433448,-0.21609 2.054709,-0.35702 2.321188,-0.14901 0.243454,0.19003 0.190788,0.67129 0.190788,1.65257 v 1.76302 l -1.087032,0.11362 c -5.7103,0.59684 -10.400199,4.60774 -11.8035,10.09459 -0.189384,0.74048 -0.344334,1.77611 -0.344334,2.3014 v 0.95506 h -1.814969 l -1.748053,0.0668 z"
         d="m 45.130232,206.13601 c 0.175385,-7.52967 6.610308,-14.01499 14.247905,-15.16632 1.433448,-0.21609 2.054709,-0.35702 2.321188,-0.14901 0.243454,0.19003 0.190788,0.67129 0.190788,1.65257 v 1.76302 l -1.087032,0.11362 c -5.7103,0.59684 -10.400199,4.60774 -11.8035,10.09459 -0.189384,0.74048 -0.344334,1.77611 -0.344334,2.3014 v 0.95506 h -1.814969 l -1.748053,0.0668 z"
         id="path16"
         sodipodi:nodetypes="sssscssscccs"
         transform="translate(-0.67927245,0.40688294)" />
      <text
         xml:space="preserve"
         style="font-style:normal;font-variant:normal;font-weight:normal;font-stretch:normal;font-size:9.5218px;font-family:'.Arial Hebrew Desk Interface';-inkscape-font-specification:'.Arial Hebrew Desk Interface';writing-mode:lr-tb;direction:ltr;fill:#000000;fill-opacity:0.96587;stroke:none;stroke-width:0;stroke-dasharray:none;stroke-opacity:0.890785;paint-order:markers stroke fill"
         x="62.178734"
         y="198.44687"
         id="text32"
         transform="scale(1.0008359,0.99916479)"><tspan
           sodipodi:role="line"
           id="tspan32"
           style="font-style:normal;font-variant:normal;font-weight:normal;font-stretch:normal;font-family:'.Arial Hebrew Desk Interface';-inkscape-font-specification:'.Arial Hebrew Desk Interface';stroke-width:0"
           x="62.178734"
           y="198.44687" /></text>
      <path
         d="m 67.961394,191.37345 h 0.974616 v 4.24805 q 0,1.1084 -0.25119,1.76041 -0.251189,0.652 -0.909307,1.06327 -0.653093,0.40624 -1.718138,0.40624 -1.034903,0 -1.69302,-0.35609 -0.658118,-0.3561 -0.93945,-1.02816 -0.281333,-0.67708 -0.281333,-1.84567 v -4.24805 h 0.974616 v 4.24303 q 0,0.95795 0.175833,1.41435 0.180857,0.45139 0.612904,0.69714 0.43707,0.24575 1.065045,0.24575 1.075093,0 1.532258,-0.48649 0.457166,-0.4865 0.457166,-1.87075 z m 2.265733,4.99033 0.919354,-0.0803 q 0.06531,0.5517 0.301428,0.90779 0.241143,0.35108 0.743522,0.57176 0.50238,0.21566 1.130355,0.21566 0.557641,0 0.984664,-0.16551 0.427023,-0.1655 0.632998,-0.45138 0.211,-0.2909 0.211,-0.63195 0,-0.34606 -0.200952,-0.60184 -0.200952,-0.26081 -0.663141,-0.43635 -0.296404,-0.11535 -1.311211,-0.35609 -1.014807,-0.24576 -1.421735,-0.46142 -0.527499,-0.27584 -0.788736,-0.68209 -0.256214,-0.41127 -0.256214,-0.91782 0,-0.55671 0.316499,-1.03819 0.3165,-0.4865 0.924379,-0.73727 0.607879,-0.25077 1.351402,-0.25077 0.818878,0 1.441829,0.26582 0.627975,0.2608 0.96457,0.77237 0.336594,0.51157 0.361713,1.15856 l -0.934426,0.0702 q -0.07536,-0.69715 -0.512427,-1.05324 -0.432047,-0.35609 -1.281069,-0.35609 -0.884189,0 -1.291116,0.326 -0.401904,0.32098 -0.401904,0.77739 0,0.39621 0.286357,0.652 0.281332,0.25578 1.466948,0.52662 1.19064,0.26581 1.632735,0.46643 0.643046,0.29591 0.949497,0.75231 0.306452,0.45139 0.306452,1.04321 0,0.5868 -0.336594,1.1084 -0.336595,0.51659 -0.969593,0.80748 -0.627975,0.28588 -1.416711,0.28588 -0.999736,0 -1.677948,-0.29089 -0.673189,-0.29089 -1.060022,-0.87268 -0.381809,-0.5868 -0.401903,-1.32407 z m 7.184029,2.36226 v -7.35259 h 0.999736 l 3.868324,5.77273 v -5.77273 h 0.934425 v 7.35259 h -0.999735 l -3.868324,-5.77776 v 5.77776 z"
         id="text39"
         style="font-size:29.6757px;font-family:Arial;-inkscape-font-specification:Arial;fill:#ffffff;fill-opacity:1;stroke-width:0;stroke-opacity:0.890785;paint-order:markers stroke fill"
         aria-label="USN" />
      <path
         d="m 162.27979,219.32046 0.3915,-0.0342 q 0.0278,0.23493 0.12836,0.38657 0.10269,0.14951 0.31662,0.24348 0.21394,0.0918 0.48136,0.0918 0.23747,0 0.41932,-0.0705 0.18184,-0.0705 0.26955,-0.19222 0.0899,-0.12388 0.0899,-0.26911 0,-0.14737 -0.0856,-0.2563 -0.0856,-0.11105 -0.28239,-0.18581 -0.12622,-0.0491 -0.55838,-0.15164 -0.43215,-0.10465 -0.60543,-0.19649 -0.22463,-0.11747 -0.33588,-0.29047 -0.10911,-0.17513 -0.10911,-0.39084 0,-0.23708 0.13478,-0.44211 0.13478,-0.20717 0.39364,-0.31396 0.25887,-0.10679 0.57549,-0.10679 0.34871,0 0.61399,0.1132 0.26742,0.11106 0.41076,0.32891 0.14334,0.21785 0.15403,0.49336 l -0.39791,0.0299 q -0.0321,-0.29687 -0.21822,-0.44851 -0.18398,-0.15164 -0.54554,-0.15164 -0.37652,0 -0.54981,0.13882 -0.17115,0.13669 -0.17115,0.33105 0,0.16873 0.12194,0.27765 0.11981,0.10893 0.6247,0.22426 0.50702,0.1132 0.69529,0.19863 0.27383,0.126 0.40433,0.32036 0.1305,0.19223 0.1305,0.44424 0,0.24989 -0.14333,0.47201 -0.14334,0.21999 -0.4129,0.34386 -0.26742,0.12174 -0.6033,0.12174 -0.42573,0 -0.71454,-0.12387 -0.28668,-0.12388 -0.4514,-0.37162 -0.1626,-0.24989 -0.17115,-0.56386 z m 2.71912,1.00596 1.20445,-3.13105 h 0.44713 l 1.28361,3.13105 h -0.4728 l -0.36582,-0.94829 h -1.31143 l -0.34443,0.94829 z m 0.90494,-1.28574 h 1.06326 l -0.32732,-0.86713 q -0.14975,-0.39512 -0.22249,-0.64928 -0.0599,0.30115 -0.16901,0.59802 z m 2.36827,1.28574 v -3.13105 h 1.39058 q 0.41931,0 0.63753,0.0854 0.21821,0.0833 0.34871,0.29688 0.13051,0.21358 0.13051,0.47201 0,0.33318 -0.21608,0.56171 -0.21608,0.22853 -0.66748,0.29046 0.16473,0.079 0.2503,0.15592 0.18185,0.16658 0.34444,0.41647 l 0.54554,0.85218 h -0.52201 l -0.41503,-0.65141 q -0.18184,-0.28193 -0.29951,-0.43143 -0.11766,-0.14951 -0.2118,-0.20931 -0.092,-0.0598 -0.18826,-0.0833 -0.0706,-0.0149 -0.23105,-0.0149 h -0.48135 v 1.3904 z m 0.41504,-1.74921 h 0.8921 q 0.28454,0 0.44499,-0.0577 0.16045,-0.0598 0.24389,-0.18795 0.0834,-0.13028 0.0834,-0.28192 0,-0.22213 -0.1626,-0.36522 -0.16045,-0.1431 -0.50917,-0.1431 h -0.99265 z m 4.67876,1.74921 v -2.76157 h -1.03331 v -0.36948 h 2.48594 v 0.36948 h -1.03759 v 2.76157 z m 2.89883,-0.73044 0.39792,0.0491 q -0.0941,0.34813 -0.34872,0.54035 -0.25458,0.19222 -0.65036,0.19222 -0.49847,0 -0.79156,-0.30542 -0.29095,-0.30755 -0.29095,-0.86072 0,-0.57239 0.29522,-0.88848 0.29524,-0.3161 0.7659,-0.3161 0.45568,0 0.74449,0.30969 0.28881,0.30969 0.28881,0.8714 0,0.0342 -0.002,0.10251 h -1.69436 q 0.0214,0.37377 0.21179,0.57239 0.19041,0.19864 0.47494,0.19864 0.21179,0 0.36155,-0.11107 0.14976,-0.11106 0.23747,-0.35454 z m -1.26436,-0.62151 h 1.26864 q -0.0256,-0.28619 -0.14548,-0.42929 -0.18399,-0.22212 -0.47708,-0.22212 -0.26527,0 -0.44712,0.17727 -0.1797,0.17727 -0.19896,0.47414 z m 3.62835,0.52113 0.37866,0.0491 q -0.062,0.39084 -0.31876,0.61296 -0.25458,0.21999 -0.62683,0.21999 -0.46638,0 -0.75092,-0.30328 -0.28239,-0.30542 -0.28239,-0.87354 0,-0.36735 0.12194,-0.64287 0.12195,-0.27551 0.37011,-0.4122 0.2503,-0.13883 0.54339,-0.13883 0.37012,0 0.60545,0.18795 0.23532,0.18581 0.30165,0.52967 l -0.37439,0.0577 q -0.0535,-0.22853 -0.19041,-0.34386 -0.13478,-0.11533 -0.32732,-0.11533 -0.29095,0 -0.4728,0.2093 -0.18184,0.20717 -0.18184,0.65783 0,0.45705 0.17543,0.66422 0.17543,0.20718 0.45782,0.20718 0.22677,0 0.37867,-0.13883 0.15189,-0.13883 0.19254,-0.42716 z m 0.70812,0.83082 v -3.13105 h 0.38509 v 1.12341 q 0.26955,-0.31182 0.68031,-0.31182 0.25245,0 0.43857,0.10038 0.18612,0.0983 0.26528,0.27338 0.0813,0.17514 0.0813,0.50832 v 1.43738 h -0.38509 v -1.43738 q 0,-0.28833 -0.12622,-0.41861 -0.12408,-0.13242 -0.353,-0.13242 -0.17114,0 -0.32304,0.0897 -0.14975,0.0876 -0.21393,0.23921 -0.0642,0.15164 -0.0642,0.41861 v 1.24089 z m 2.43672,0 v -2.2682 h 0.34658 v 0.3225 q 0.25031,-0.37376 0.7231,-0.37376 0.20538,0 0.37653,0.0747 0.17329,0.0726 0.25886,0.19222 0.0856,0.11961 0.11981,0.28406 0.0214,0.10679 0.0214,0.37377 v 1.39466 h -0.38508 v -1.37971 q 0,-0.23494 -0.045,-0.35027 -0.0449,-0.11747 -0.16045,-0.18582 -0.11339,-0.0705 -0.26742,-0.0705 -0.24603,0 -0.42574,0.15591 -0.17756,0.15591 -0.17756,0.59161 v 1.23876 z m 2.2934,-1.1341 q 0,-0.63006 0.35085,-0.93334 0.29309,-0.25202 0.71455,-0.25202 0.46851,0 0.76588,0.30755 0.29737,0.30542 0.29737,0.84577 0,0.43784 -0.13264,0.68986 -0.1305,0.24989 -0.38294,0.38872 -0.25031,0.13882 -0.54767,0.13882 -0.47708,0 -0.77231,-0.30542 -0.29309,-0.30541 -0.29309,-0.87994 z m 0.39578,0 q 0,0.4357 0.1904,0.65355 0.1904,0.21572 0.47922,0.21572 0.28667,0 0.47707,-0.21785 0.19041,-0.21786 0.19041,-0.66424 0,-0.42074 -0.19255,-0.63646 -0.1904,-0.21785 -0.47493,-0.21785 -0.28882,0 -0.47922,0.21572 -0.1904,0.21571 -0.1904,0.65141 z m 2.17572,1.1341 v -3.13105 h 0.38508 v 3.13105 z m 0.83863,-1.1341 q 0,-0.63006 0.35085,-0.93334 0.29309,-0.25202 0.71455,-0.25202 0.46851,0 0.76589,0.30755 0.29736,0.30542 0.29736,0.84577 0,0.43784 -0.13263,0.68986 -0.13051,0.24989 -0.38295,0.38872 -0.2503,0.13882 -0.54767,0.13882 -0.47708,0 -0.77231,-0.30542 -0.29309,-0.30541 -0.29309,-0.87994 z m 0.39578,0 q 0,0.4357 0.1904,0.65355 0.1904,0.21572 0.47922,0.21572 0.28667,0 0.47707,-0.21785 0.1904,-0.21786 0.1904,-0.66424 0,-0.42074 -0.19254,-0.63646 -0.1904,-0.21785 -0.47493,-0.21785 -0.28882,0 -0.47922,0.21572 -0.1904,0.21571 -0.1904,0.65141 z m 2.11368,1.32205 0.37439,0.0555 q 0.0235,0.173 0.1305,0.25202 0.14333,0.10679 0.3915,0.10679 0.26742,0 0.41289,-0.10679 0.14548,-0.10679 0.19683,-0.29901 0.03,-0.11747 0.0278,-0.49336 -0.25245,0.29687 -0.62897,0.29687 -0.46852,0 -0.72524,-0.33745 -0.25673,-0.33746 -0.25673,-0.80947 0,-0.32463 0.11767,-0.59801 0.11766,-0.27552 0.34016,-0.42502 0.22462,-0.14951 0.52628,-0.14951 0.40219,0 0.6632,0.32464 v -0.27338 h 0.35513 v 1.96065 q 0,0.52967 -0.10911,0.74966 -0.10697,0.22212 -0.3423,0.35027 -0.23319,0.12814 -0.57548,0.12814 -0.40648,0 -0.65678,-0.18367 -0.25031,-0.18155 -0.24175,-0.5489 z m 0.31876,-1.36263 q 0,0.44638 0.17757,0.65142 0.17757,0.20503 0.44499,0.20503 0.26528,0 0.44498,-0.2029 0.17971,-0.20503 0.17971,-0.64073 0,-0.41649 -0.18612,-0.62793 -0.18399,-0.21144 -0.44499,-0.21144 -0.25672,0 -0.43643,0.20931 -0.17971,0.20717 -0.17971,0.61724 z m 2.17145,2.04822 -0.0428,-0.36095 q 0.12622,0.0342 0.22036,0.0342 0.12835,0 0.20537,-0.0427 0.077,-0.0427 0.12622,-0.1196 0.0364,-0.0577 0.11767,-0.2862 0.0107,-0.032 0.0342,-0.094 l -0.86216,-2.27247 h 0.41504 l 0.47279,1.3135 q 0.092,0.24989 0.16474,0.52541 0.0663,-0.26484 0.15831,-0.51686 l 0.48563,-1.32205 h 0.38509 l -0.8643,2.30664 q -0.13906,0.37377 -0.21608,0.51473 -0.10269,0.19008 -0.23533,0.27765 -0.13264,0.0897 -0.31662,0.0897 -0.11125,0 -0.24817,-0.047 z"
         id="text40"
         style="font-size:29.6757px;font-family:Arial;-inkscape-font-specification:Arial;fill:#ffffff;fill-opacity:1;stroke-width:0;stroke-opacity:0.890785;paint-order:markers stroke fill"
         aria-label="SAR Technology" />
    </g>
    <path
       style="font-weight:bold;font-size:25.4px;font-family:'FONTSPRING DEMO - All Round Gothic Bold';-inkscape-font-specification:'FONTSPRING DEMO - All Round Gothic Bold,  Bold';fill:#ffffff;fill-opacity:1;stroke:#0e0e0e;stroke-width:0;stroke-opacity:0.986348;paint-order:markers stroke fill"
       d="m 171.78223,144.97253 h 5.31967 v -9.85913 c 0,-2.34066 1.13487,-3.15634 2.73077,-3.15634 1.56044,0 2.6953,0.81568 2.6953,3.15634 v 9.85913 h 5.31968 v -9.85913 c 0,-2.34066 1.13486,-3.15634 2.6953,-3.15634 1.5959,0 2.73076,0.81568 2.73076,3.15634 v 9.85913 h 5.31968 v -9.85913 c 0,-5.63886 -3.26273,-8.12137 -7.51847,-8.12137 -2.51798,0 -4.57492,0.95754 -5.88711,2.8017 -1.31219,-1.84416 -3.40459,-2.8017 -5.88711,-2.8017 -4.25574,0 -7.51847,2.48251 -7.51847,8.12137 z"
       id="path29" />
    <path
       style="font-weight:bold;font-size:25.4px;font-family:'FONTSPRING DEMO - All Round Gothic Bold';-inkscape-font-specification:'FONTSPRING DEMO - All Round Gothic Bold,  Bold';fill:#ffffff;fill-opacity:1;stroke:#0e0e0e;stroke-width:0;stroke-opacity:0.986348;paint-order:markers stroke fill"
       d="m 159.65335,145.43357 c 5.17782,0 8.65334,-3.01448 8.65334,-8.90159 v -9.07891 h -5.31967 v 9.07891 c 0,2.76623 -1.34765,3.93656 -3.33367,3.93656 -1.98601,0 -3.33366,-1.17033 -3.33366,-3.93656 v -9.07891 h -5.31967 v 9.07891 c 0,5.92257 3.47552,8.90159 8.65333,8.90159 z"
       id="path28" />
    <path
       style="font-weight:bold;font-size:25.4px;font-family:'FONTSPRING DEMO - All Round Gothic Bold';-inkscape-font-specification:'FONTSPRING DEMO - All Round Gothic Bold,  Bold';fill:#ffffff;fill-opacity:1;stroke:#0e0e0e;stroke-width:0;stroke-opacity:0.986348;paint-order:markers stroke fill"
       d="m 141.10542,145.43357 c 4.36213,0 7.34115,-2.37612 7.34115,-7.37662 v -0.53196 h -5.31967 v 0.53196 c 0,1.84416 -0.85115,2.41159 -2.02148,2.41159 -1.17033,0 -2.02148,-0.56743 -2.02148,-2.41159 v -5.81617 h 8.2987 v -4.78771 h -8.2987 v -6.20629 h -5.31967 v 16.81017 c 0,5.0005 2.97902,7.37662 7.34115,7.37662 z"
       id="path27" />
    <path
       style="font-weight:bold;font-size:25.4px;font-family:'FONTSPRING DEMO - All Round Gothic Bold';-inkscape-font-specification:'FONTSPRING DEMO - All Round Gothic Bold,  Bold';fill:#ffffff;fill-opacity:1;stroke:#0e0e0e;stroke-width:0;stroke-opacity:0.986348;paint-order:markers stroke fill"
       d="m 112.98205,144.97253 h 5.31968 v -9.07891 c 0,-2.76623 1.34765,-3.93656 3.33366,-3.93656 1.98601,0 3.33366,1.17033 3.33366,3.93656 v 9.07891 h 5.31968 v -9.07891 c 0,-5.92257 -3.47552,-8.90159 -8.65334,-8.90159 -5.17782,0 -8.65334,3.01448 -8.65334,8.90159 z"
       id="path26" />
    <path
       style="font-weight:bold;font-size:25.4px;font-family:'FONTSPRING DEMO - All Round Gothic Bold';-inkscape-font-specification:'FONTSPRING DEMO - All Round Gothic Bold,  Bold';fill:#ffffff;fill-opacity:1;stroke:#0e0e0e;stroke-width:0;stroke-opacity:0.986348;paint-order:markers stroke fill"
       d="m 100.88865,145.43357 c 4.36213,0 7.69581,-2.41159 8.83067,-6.02897 h -5.49701 c -0.67382,0.95755 -1.80869,1.27673 -3.33366,1.27673 -1.915085,0 -3.475523,-0.92208 -3.901097,-2.97902 h 13.228267 v -1.48951 c 0,-5.31968 -3.7947,-9.22077 -9.32717,-9.22077 -5.532464,0 -9.43356,3.90109 -9.43356,9.22077 0,5.31968 3.901096,9.22077 9.43356,9.22077 z m -3.794704,-11.10039 c 0.531968,-1.77322 1.950548,-2.58891 3.794704,-2.58891 1.84416,0 3.26274,0.78022 3.86563,2.58891 z"
       id="path25" />
    <path
       style="font-weight:bold;font-size:25.4px;font-family:'FONTSPRING DEMO - All Round Gothic Bold';-inkscape-font-specification:'FONTSPRING DEMO - All Round Gothic Bold,  Bold';fill:#ffffff;fill-opacity:1;stroke:#0e0e0e;stroke-width:0;stroke-opacity:0.986348;paint-order:markers stroke fill"
       d="m 79.397164,152.91658 c 5.071424,0 9.291695,-2.58891 9.291695,-9.2917 v -7.23476 c 0,-5.74525 -3.830162,-9.39809 -9.362624,-9.39809 -5.532462,0 -9.433557,3.90109 -9.433557,9.22077 0,6.49 4.681314,8.93705 8.405087,8.93705 2.198799,0 3.972024,-0.81568 5.071423,-2.37612 v 1.02847 c 0,3.4046 -1.41858,4.50399 -4.007488,4.50399 -1.773226,0 -3.049948,-0.53196 -3.581915,-1.63136 h -5.390604 c 1.063935,4.2912 4.539456,6.24175 9.007983,6.24175 z m -0.07093,-12.73176 c -2.411586,0 -4.042953,-1.45404 -4.042953,-3.97202 0,-2.51798 1.631367,-4.25574 4.042953,-4.25574 2.411586,0 4.042953,1.73776 4.042953,4.25574 0,2.51798 -1.631367,3.97202 -4.042953,3.97202 z"
       id="path24" />
    <path
       style="font-weight:bold;font-size:25.4px;font-family:'FONTSPRING DEMO - All Round Gothic Bold';-inkscape-font-specification:'FONTSPRING DEMO - All Round Gothic Bold,  Bold';fill:#ffffff;fill-opacity:1;stroke:#0e0e0e;stroke-width:0;stroke-opacity:0.986348;paint-order:markers stroke fill"
       d="m 52.692427,144.97253 h 5.319675 v -9.96552 c 0,-2.34066 1.063935,-3.04995 2.553444,-3.04995 1.489509,0 2.553444,0.70929 2.553444,3.04995 v 0.14185 h 5.319674 v -0.10639 c -0.03547,-5.53246 -3.191804,-8.05044 -7.873118,-8.05044 -4.681314,0 -7.873119,2.55344 -7.873119,8.01498 z"
       id="path23" />
    <path
       id="path40"
       style="fill:#ffffff;fill-opacity:1;stroke:#0e0e0e;stroke-width:0;stroke-dasharray:none;stroke-opacity:0.986348;paint-order:markers stroke fill"
       d="m 40.464708,126.85316 a 9.0534722,9.0534722 0 0 0 -9.053194,9.05371 9.0534722,9.0534722 0 0 0 8.798429,9.0501 v 10e-4 h 0.04393 a 9.0534722,9.0534722 0 0 0 0.21084,0.003 9.0534722,9.0534722 0 0 0 0.211357,-0.003 h 8.707995 v -7.4967 a 9.0534722,9.0534722 0 0 0 0.134359,-1.55443 9.0534722,9.0534722 0 0 0 -9.053711,-9.05371 z m -0.236678,4.62298 a 4.3717151,4.3717151 0 0 1 4.371826,4.37182 4.3717151,4.3717151 0 0 1 -4.371826,4.37131 4.3717151,4.3717151 0 0 1 -4.371826,-4.37131 4.3717151,4.3717151 0 0 1 4.371826,-4.37182 z" />
  </g>
</svg>
