<svg xmlns="http://www.w3.org/2000/svg" xmlns:xlink="http://www.w3.org/1999/xlink" width="2000" zoomAndPan="magnify" viewBox="0 0 1500 1499.999933" height="2000" preserveAspectRatio="xMidYMid meet" version="1.0"><defs><g/><clipPath id="ed94e9fd21"><rect x="0" width="725" y="0" height="400"/></clipPath><clipPath id="6a30010b20"><path d="M 649.984375 753.609375 L 850.234375 753.609375 L 850.234375 948.609375 L 649.984375 948.609375 Z M 649.984375 753.609375 " clip-rule="nonzero"/></clipPath><clipPath id="a11633e9e7"><path d="M 113 0.609375 L 153 0.609375 L 153 41 L 113 41 Z M 113 0.609375 " clip-rule="nonzero"/></clipPath><clipPath id="a96fcf252d"><path d="M 12 122 L 132 122 L 132 195.609375 L 12 195.609375 Z M 12 122 " clip-rule="nonzero"/></clipPath><clipPath id="d0baddad07"><rect x="0" width="202" y="0" height="196"/></clipPath></defs><g transform="matrix(1, 0, 0, 1, 389, 550)"><g clip-path="url(#ed94e9fd21)"><g fill="#ffffff" fill-opacity="1"><g transform="translate(128.457522, 393.542561)"><g><path d="M -33.03125 -26.625 L -31.640625 -60.28125 L -75 -45.28125 Z M 3.40625 -82.71875 L 2.96875 -72.375 L -22.65625 -63.453125 L -24.328125 -22.703125 L 0.484375 -11.71875 L 0.0625 -1.359375 L -97.359375 -46.203125 Z M 3.40625 -82.71875 "/></g></g></g><g fill="#ffffff" fill-opacity="1"><g transform="translate(132.986828, 319.566377)"><g/></g></g><g fill="#ffffff" fill-opacity="1"><g transform="translate(137.48975, 291.809121)"><g><path d="M -32.328125 -38.03125 L -22.796875 -57.359375 C -20.421875 -62.160156 -20.097656 -66.914062 -21.828125 -71.625 C -23.597656 -76.457031 -26.929688 -80.082031 -31.828125 -82.5 C -36.628906 -84.875 -41.367188 -85.335938 -46.046875 -83.890625 C -50.628906 -82.398438 -54.171875 -79.128906 -56.671875 -74.078125 L -66.203125 -54.75 Z M -27.34375 -90.953125 C -20.09375 -87.367188 -15.332031 -81.816406 -13.0625 -74.296875 C -11.070312 -67.640625 -11.460938 -60.988281 -14.234375 -54.34375 L 31.40625 -63.609375 L 25.734375 -52.109375 L -19.171875 -44.015625 L -24.125 -33.984375 L 8.765625 -17.734375 L 4.53125 -9.171875 L -78.625 -50.234375 L -65.453125 -76.90625 C -61.796875 -84.3125 -56.398438 -89.398438 -49.265625 -92.171875 C -41.828125 -94.898438 -34.519531 -94.492188 -27.34375 -90.953125 Z M -27.34375 -90.953125 "/></g></g></g><g fill="#ffffff" fill-opacity="1"><g transform="translate(167.114389, 233.947635)"><g/></g></g><g fill="#ffffff" fill-opacity="1"><g transform="translate(178.143108, 209.749358)"><g><path d="M 54.59375 -96.21875 L 57.296875 -91.0625 C 62.546875 -80.894531 63.796875 -70.191406 61.046875 -58.953125 C 58.304688 -47.691406 52.453125 -38.644531 43.484375 -31.8125 C 38.285156 -27.84375 32.597656 -25.109375 26.421875 -23.609375 C 20.304688 -22.015625 14.226562 -21.660156 8.1875 -22.546875 C 2.125 -23.304688 -3.648438 -25.242188 -9.140625 -28.359375 C -14.691406 -31.453125 -19.476562 -35.632812 -23.5 -40.90625 C -27.476562 -46.113281 -30.222656 -51.804688 -31.734375 -57.984375 C -33.296875 -64.097656 -33.664062 -70.210938 -32.84375 -76.328125 C -32.050781 -82.316406 -30.113281 -88.09375 -27.03125 -93.65625 C -23.882812 -99.144531 -19.960938 -103.679688 -15.265625 -107.265625 C -6.453125 -113.992188 3.21875 -117.425781 13.75 -117.5625 C 24.351562 -117.757812 34.003906 -114.710938 42.703125 -108.421875 L 34.671875 -102.296875 C 27.773438 -106.523438 20.410156 -108.457031 12.578125 -108.09375 C 4.671875 -107.664062 -2.425781 -105.050781 -8.71875 -100.25 C -17.09375 -93.851562 -21.988281 -85.425781 -23.40625 -74.96875 C -24.8125 -64.507812 -22.3125 -55.085938 -15.90625 -46.703125 C -9.5625 -38.390625 -1.140625 -33.492188 9.359375 -32.015625 C 19.796875 -30.484375 29.242188 -32.945312 37.703125 -39.40625 C 44.359375 -44.476562 48.96875 -51.023438 51.53125 -59.046875 C 53.976562 -67.097656 53.859375 -75.132812 51.171875 -83.15625 L 21.234375 -60.3125 L 16.1875 -66.921875 Z M 54.59375 -96.21875 "/></g></g></g><g fill="#ffffff" fill-opacity="1"><g transform="translate(256.126173, 154.096258)"><g/></g></g><g fill="#ffffff" fill-opacity="1"><g transform="translate(280.819882, 140.80122)"><g><path d="M 64.171875 -12.28125 L 10.046875 -1.921875 L -7.375 -93.015625 L 46.75 -103.375 L 48.40625 -94.671875 L 3.65625 -86.109375 L 9.859375 -53.6875 L 53.265625 -61.984375 L 54.953125 -53.140625 L 11.546875 -44.84375 L 17.75 -12.421875 L 62.5 -20.984375 Z M 64.171875 -12.28125 "/></g></g></g><g fill="#ffffff" fill-opacity="1"><g transform="translate(346.071954, 129.353937)"><g/></g></g><g fill="#ffffff" fill-opacity="1"><g transform="translate(373.575349, 126.278837)"><g><path d="M 34.671875 -62.125 L 19.265625 4.453125 L 9.96875 2.3125 L 32.203125 -93.78125 L 66.265625 -9.875 L 81.640625 -76.3125 L 90.953125 -74.15625 L 68.75 21.796875 Z M 34.671875 -62.125 "/></g></g></g><g fill="#ffffff" fill-opacity="1"><g transform="translate(443.636357, 143.892272)"><g/></g></g><g fill="#ffffff" fill-opacity="1"><g transform="translate(470.578827, 154.742266)"><g><path d="M 50.84375 -67.125 L 55.96875 -74.375 L 74.328125 -61.375 L 82.125 -55.859375 L 100.515625 -42.859375 L 95.390625 -35.609375 L 77 -48.609375 L 28.546875 19.875 L 20.75 14.359375 L 69.203125 -54.125 Z M 50.84375 -67.125 "/></g></g></g><g fill="#ffffff" fill-opacity="1"><g transform="translate(512.853723, 185.037838)"><g/></g></g><g fill="#ffffff" fill-opacity="1"><g transform="translate(534.691364, 201.743006)"><g><path d="M 67.109375 49.1875 C 58.640625 54.5 50.195312 55.929688 41.78125 53.484375 C 33.875 51.148438 27.1875 45.628906 21.71875 36.921875 C 16.207031 28.148438 14.117188 19.691406 15.453125 11.546875 C 16.910156 2.910156 21.875 -4.0625 30.34375 -9.375 L 82.90625 -42.375 L 87.96875 -34.296875 L 34.265625 -0.578125 C 28.335938 3.140625 25.144531 8.148438 24.6875 14.453125 C 24.238281 19.890625 25.945312 25.6875 29.8125 31.84375 C 35.851562 41.46875 43.148438 45.910156 51.703125 45.171875 C 54.671875 44.921875 57.734375 43.804688 60.890625 41.828125 L 114.59375 8.109375 L 119.671875 16.1875 Z M 67.109375 49.1875 "/></g></g></g><g fill="#ffffff" fill-opacity="1"><g transform="translate(573.422659, 266.389436)"><g/></g></g><g fill="#ffffff" fill-opacity="1"><g transform="translate(587.711489, 288.853054)"><g><path d="M 7.828125 95.421875 L 72.4375 75.640625 L -1.0625 53.75 L 67.890625 20.046875 L 0.921875 11.15625 L 0.109375 1.359375 L 100.453125 14.890625 L 23.8125 51.703125 L 105.421875 75.53125 L 8.625 105.078125 Z M 7.828125 95.421875 "/></g></g></g></g></g><g clip-path="url(#6a30010b20)"><g transform="matrix(1, 0, 0, 1, 649, 753)"><g clip-path="url(#d0baddad07)"><g clip-path="url(#a11633e9e7)"><path fill="#19e3e3" d="M 137.519531 1.164062 C 146.566406 3.386719 152.734375 11.121094 152.765625 20.292969 C 152.765625 24.769531 151.828125 27.902344 149.351562 31.628906 C 141.652344 43.273438 124.273438 43.148438 116.417969 31.378906 C 114.097656 27.933594 113.160156 24.800781 113.160156 20.449219 C 113.160156 17.507812 113.253906 16.664062 114.003906 14.5 C 115.164062 11.121094 116.730469 8.648438 119.265625 6.140625 C 123.960938 1.507812 131.070312 -0.433594 137.519531 1.164062 Z M 130.945312 13.125 C 125.902344 14.53125 123.679688 20.761719 126.714844 24.960938 C 128.5625 27.496094 132.195312 28.683594 135.390625 27.808594 C 137.519531 27.183594 139.648438 25.023438 140.304688 22.828125 C 140.929688 20.699219 140.929688 20.199219 140.304688 18.132812 C 139.175781 14.3125 134.917969 12.027344 130.945312 13.125 Z M 130.945312 13.125 " fill-opacity="1" fill-rule="nonzero"/></g><path fill="#19e3e3" d="M 106.117188 19.730469 C 106.054688 22.015625 106.179688 24.050781 106.460938 25.460938 C 107.554688 30.59375 110.25 35.699219 113.847656 39.328125 L 115.695312 41.207031 L 111.90625 42.773438 C 108.023438 44.371094 93.277344 50.414062 79.597656 55.984375 C 75.464844 57.675781 68.355469 60.621094 63.785156 62.5 L 55.488281 65.910156 L 55.238281 63.375 C 54.519531 55.796875 51.605469 49.472656 46.410156 44.152344 C 45.1875 42.898438 44.25 41.835938 44.34375 41.773438 C 44.4375 41.710938 51.636719 38.703125 60.34375 35.070312 C 94.28125 20.984375 105.769531 16.222656 106.023438 16.222656 C 106.117188 16.222656 106.179688 17.820312 106.117188 19.730469 Z M 106.117188 19.730469 " fill-opacity="1" fill-rule="nonzero"/><path fill="#19e3e3" d="M 160.78125 45.589844 C 164.066406 50.539062 166.792969 54.671875 166.792969 54.796875 C 166.792969 55.015625 152.015625 63.96875 151.136719 64.25 C 150.792969 64.378906 149.039062 61.964844 144.875 55.765625 C 141.683594 51.039062 139.050781 47.0625 138.988281 46.9375 C 138.957031 46.84375 139.648438 46.5625 140.554688 46.34375 C 144.75 45.371094 150.699219 41.523438 153.265625 38.140625 C 153.894531 37.292969 154.488281 36.605469 154.582031 36.605469 C 154.675781 36.605469 157.460938 40.644531 160.78125 45.589844 Z M 160.78125 45.589844 " fill-opacity="1" fill-rule="nonzero"/><path fill="#19e3e3" d="M 29.347656 42.367188 C 36.859375 44.058594 42.996094 48.972656 46.128906 55.765625 C 48.039062 59.992188 48.664062 66.035156 47.660156 70.765625 C 46.660156 75.554688 43.121094 81.066406 39.113281 84.164062 C 35.074219 87.296875 30.941406 88.765625 25.589844 89.078125 C 14.660156 89.675781 5.144531 82.847656 1.730469 71.953125 C 1.136719 69.980469 1.011719 68.980469 1.042969 65.535156 C 1.074219 61.964844 1.167969 61.121094 1.917969 58.804688 C 4.519531 50.882812 10.089844 45.308594 17.917969 42.835938 C 20.765625 41.929688 26.402344 41.710938 29.347656 42.367188 Z M 19.765625 56.082031 C 16.320312 57.832031 14.003906 61.652344 14.003906 65.535156 C 14.003906 68.511719 14.945312 70.765625 17.105469 72.925781 C 19.515625 75.304688 21.675781 76.148438 25.121094 75.960938 C 29.15625 75.742188 32.351562 73.675781 34.074219 70.199219 C 35.167969 67.945312 35.292969 64.3125 34.324219 61.777344 C 33.417969 59.304688 30.816406 56.675781 28.40625 55.734375 C 25.933594 54.765625 22.019531 54.921875 19.765625 56.082031 Z M 19.765625 56.082031 " fill-opacity="1" fill-rule="nonzero"/><path fill="#19e3e3" d="M 178.53125 60.148438 L 180.316406 63.0625 L 188.992188 65.941406 L 197.664062 68.824219 L 198.039062 71.890625 C 198.226562 73.550781 198.882812 78.9375 199.480469 83.851562 C 200.074219 88.765625 200.636719 93.621094 200.761719 94.683594 L 200.980469 96.5625 L 198.632812 98.003906 L 196.285156 99.441406 L 195.660156 97.0625 C 192.777344 85.824219 190.460938 77.371094 190.148438 77.089844 C 189.679688 76.617188 179.628906 73.769531 179.035156 73.925781 C 178.40625 74.082031 163.003906 83.445312 162.535156 83.945312 C 162.316406 84.164062 161.71875 86.792969 161.1875 89.800781 C 160.375 94.464844 160.3125 95.339844 160.6875 95.625 C 160.90625 95.8125 164.726562 99.253906 169.140625 103.261719 L 177.1875 110.621094 L 176.371094 111.246094 C 175.933594 111.589844 174.902344 112.25 174.085938 112.71875 L 172.585938 113.5625 L 167.230469 109.898438 C 149.792969 97.941406 149.226562 97.5 149.382812 96.84375 C 149.476562 96.5 150.230469 92.585938 151.011719 88.109375 L 152.421875 80 L 151.261719 78.089844 C 150.636719 77.058594 149.761719 75.742188 149.382812 75.179688 L 148.632812 74.175781 L 151.074219 72.707031 C 152.796875 71.640625 171.644531 60.308594 176.5625 57.363281 C 176.65625 57.300781 177.5625 58.554688 178.53125 60.148438 Z M 178.53125 60.148438 " fill-opacity="1" fill-rule="nonzero"/><path fill="#19e3e3" d="M 57.179688 78.152344 C 59.246094 81.722656 69.765625 100.039062 78.09375 114.503906 L 78.90625 115.878906 L 77.6875 115.691406 C 68.386719 114.09375 57.492188 116.695312 49.476562 122.328125 C 45.25 125.304688 40.742188 130.125 38.363281 134.195312 L 37.582031 135.542969 L 33.980469 129.34375 C 31.976562 125.929688 28.5 119.886719 26.183594 115.941406 C 23.898438 111.964844 20.171875 105.578125 17.917969 101.699219 C 15.632812 97.816406 13.816406 94.621094 13.847656 94.558594 C 13.878906 94.527344 15.007812 94.777344 16.382812 95.121094 C 25.558594 97.46875 34.949219 95.84375 42.339844 90.582031 C 45 88.703125 49.289062 84.070312 50.886719 81.378906 C 52.234375 79.0625 54.078125 74.835938 54.078125 73.988281 C 54.078125 72.957031 54.675781 73.738281 57.179688 78.152344 Z M 57.179688 78.152344 " fill-opacity="1" fill-rule="nonzero"/><g clip-path="url(#a96fcf252d)"><path fill="#19e3e3" d="M 77.09375 122.707031 C 86.015625 124.207031 94.09375 129.40625 99.039062 136.792969 C 101.574219 140.613281 102.703125 143.621094 107.648438 159.773438 L 112.535156 175.742188 L 121.957031 175.835938 L 131.414062 175.898438 L 131.414062 195.625 L 12.753906 195.625 L 12.753906 175.898438 L 22.207031 175.835938 L 31.664062 175.742188 L 32.351562 173.394531 C 36.109375 160.496094 41.777344 142.585938 42.714844 140.738281 C 48.445312 129.3125 59.777344 122.265625 72.144531 122.390625 C 73.992188 122.421875 76.214844 122.550781 77.09375 122.707031 Z M 69.140625 140.675781 C 64.914062 141.679688 61.65625 144.339844 59.746094 148.316406 C 58.683594 150.570312 58.621094 150.851562 58.621094 154.015625 C 58.621094 157.175781 58.652344 157.394531 59.777344 159.679688 C 65.789062 171.796875 83.261719 169.292969 85.453125 156.019531 C 86.609375 149.128906 82.257812 142.585938 75.371094 140.769531 C 72.835938 140.113281 71.675781 140.082031 69.140625 140.675781 Z M 69.140625 140.675781 " fill-opacity="1" fill-rule="nonzero"/></g></g></g></g></svg>